<svg width="22" height="22" viewBox="0 0 22 22" fill="none" xmlns="http://www.w3.org/2000/svg">
<path d="M15.796 13.2C15.884 12.474 15.95 11.748 15.95 11C15.95 10.252 15.884 9.526 15.796 8.8H19.514C19.69 9.504 19.8 10.241 19.8 11C19.8 11.759 19.69 12.496 19.514 13.2M13.849 19.316C14.509 18.095 15.444 14.575 15.796 13.2H19.514C18.7 15.4 15.95 18.7782 13.849 19.316ZM13.574 13.2H8.426C8.316 12.474 8.25 11.748 8.25 11C8.25 10.252 8.316 9.515 8.426 8.8H13.574C13.673 9.515 13.75 10.252 13.75 11C13.75 11.748 13.673 12.474 13.574 13.2ZM11 19.756C10.087 18.436 8.25 14.85 8.426 13.2H11H13.574C13.574 14.85 11.913 18.436 11 19.756ZM6.204 8.8H4.4H2.486C3.3 6.6 6.05 2.75 8.14 2.684C7.48 3.905 6.404 7.15 6.204 8.8ZM2.486 13.2H4.4H6.204C6.589 14.575 7.48 18.095 8.14 19.316C6.05 19.25 3.3 15.4 2.486 13.2ZM2.486 13.2C2.31 12.496 2.2 11.759 2.2 11C2.2 10.241 2.31 9.504 2.486 8.8H4.345H6.204C6.116 9.526 6.05 10.13 6.05 11C6.05 11.748 6.116 12.474 6.204 13.2M11 2.233C11.913 3.553 13.574 7.02033 13.574 8.8H11H8.426C8.426 7.04155 10.087 3.553 11 2.233ZM19.514 8.8H15.796C15.4517 7.4376 14.5129 3.92249 13.849 2.684C15.95 2.75 18.7 6.6 19.514 8.8ZM11 0C4.917 0 0 4.95 0 11C0 13.9174 1.15893 16.7153 3.22183 18.7782C4.24327 19.7996 5.4559 20.6099 6.79048 21.1627C8.12506 21.7155 9.55546 22 11 22C13.9174 22 16.7153 20.8411 18.7782 18.7782C20.8411 16.7153 22 13.9174 22 11C22 9.55546 21.7155 8.12506 21.1627 6.79048C20.6099 5.4559 19.7996 4.24327 18.7782 3.22183C17.7567 2.20038 16.5441 1.39013 15.2095 0.837325C13.8749 0.284523 12.4445 0 11 0Z" fill="#222222"/>
</svg>
