<svg width="20" height="20" viewBox="0 0 20 20" fill="none" xmlns="http://www.w3.org/2000/svg">
<path d="M14.36 12C14.44 11.34 14.5 10.68 14.5 10C14.5 9.32 14.44 8.66 14.36 8H17.74C17.9 8.64 18 9.31 18 10C18 10.69 17.9 11.36 17.74 12M12.59 17.56C13.19 16.45 14.04 13.25 14.36 12H17.74C17 14 14.5 17.0711 12.59 17.56ZM12.34 12H7.66C7.56 11.34 7.5 10.68 7.5 10C7.5 9.32 7.56 8.65 7.66 8H12.34C12.43 8.65 12.5 9.32 12.5 10C12.5 10.68 12.43 11.34 12.34 12ZM10 17.96C9.17 16.76 7.5 13.5 7.66 12H10H12.34C12.34 13.5 10.83 16.76 10 17.96ZM5.64 8H4H2.26C3 6 5.5 2.5 7.4 2.44C6.8 3.55 5.82182 6.5 5.64 8ZM2.26 12H4H5.64C5.99 13.25 6.8 16.45 7.4 17.56C5.5 17.5 3 14 2.26 12ZM2.26 12C2.1 11.36 2 10.69 2 10C2 9.31 2.1 8.64 2.26 8H3.95H5.64C5.56 8.66 5.5 9.20912 5.5 10C5.5 10.68 5.56 11.34 5.64 12M10 2.03C10.83 3.23 12.34 6.38212 12.34 8H10H7.66C7.66 6.40141 9.17 3.23 10 2.03ZM17.74 8H14.36C14.047 6.76146 13.1936 3.5659 12.59 2.44C14.5 2.5 17 6 17.74 8ZM10 0C4.47 0 0 4.5 0 10C0 12.6522 1.05357 15.1957 2.92893 17.0711C3.85752 17.9997 4.95991 18.7362 6.17317 19.2388C7.38642 19.7413 8.68678 20 10 20C12.6522 20 15.1957 18.9464 17.0711 17.0711C18.9464 15.1957 20 12.6522 20 10C20 8.68678 19.7413 7.38642 19.2388 6.17317C18.7362 4.95991 17.9997 3.85752 17.0711 2.92893C16.1425 2.00035 15.0401 1.26375 13.8268 0.761205C12.6136 0.258658 11.3132 0 10 0Z" fill="#222222"/>
</svg>
